<?xml version="1.0" encoding="iso-8859-1"?>
<!--
Copyright (C) 2022 Marlon Engel

This program is free software: you can redistribute it and/or modify it under
the terms of the GNU Lesser General Public License as published by the Free
Software Foundation, either version 3 of the License, or (at your option) any
later version.

This program is distributed in the hope that it will be useful, but WITHOUT ANY
WARRANTY; without even the implied warranty of MERCHANTABILITY or FITNESS FOR A
PARTICULAR PURPOSE. See the GNU Lesser General Public License for more details.

You should have received a copy of the GNU Lesser General Public License along
with this program.  If not, see <http://www.gnu.org/licenses/>.
-->
<!-- Generator: Adobe Illustrator 26.4.0, SVG Export Plug-In . SVG Version: 6.00 Build 0)  -->
<svg version="1.1" xmlns="http://www.w3.org/2000/svg" xmlns:xlink="http://www.w3.org/1999/xlink" x="0px" y="0px"
	 viewBox="0 0 74.055 74.055" style="enable-background:new 0 0 74.055 74.055;" xml:space="preserve">
<g id="clip_x5F_enabled">
	<path style="fill:#474748;" d="M64.055,74.055H10c-5.5,0-10-4.5-10-10V10C0,4.5,4.5,0,10,0h54.055c5.5,0,10,4.5,10,10v54.055
		C74.055,69.555,69.555,74.055,64.055,74.055z"/>
	<path style="fill:#272828;" d="M58.785,68.785H15.27c-5.5,0-10-4.5-10-10V15.27c0-5.5,4.5-10,10-10h43.515c5.5,0,10,4.5,10,10
		v43.515C68.785,64.285,64.285,68.785,58.785,68.785z"/>
	<g>
		<path style="fill:#E2BC23;" d="M26.951,43.538c-0.665,0.333-2.159,0.688-4.105,0.688c-5.528,0-8.375-3.44-8.375-7.996
			c0-5.457,3.891-8.494,8.731-8.494c1.874,0,3.298,0.379,3.938,0.712l-0.735,2.87c-0.735-0.308-1.756-0.593-3.037-0.593
			c-2.871,0-5.102,1.732-5.102,5.291c0,3.203,1.898,5.221,5.125,5.221c1.092,0,2.302-0.237,3.014-0.522L26.951,43.538z"/>
		<path style="fill:#E2BC23;" d="M29.319,27.997h3.631v12.955h6.358v3.037h-9.989V27.997z"/>
		<path style="fill:#E2BC23;" d="M45.071,27.997v15.992H41.44V27.997H45.071z"/>
		<path style="fill:#E2BC23;" d="M48.201,28.211c1.115-0.19,2.681-0.333,4.888-0.333c2.23,0,3.82,0.428,4.888,1.281
			c1.021,0.808,1.709,2.136,1.709,3.702c0,1.565-0.522,2.895-1.472,3.796c-1.233,1.163-3.061,1.685-5.196,1.685
			c-0.475,0-0.901-0.023-1.233-0.071v5.719h-3.583V28.211z M51.784,35.471c0.309,0.071,0.688,0.096,1.21,0.096
			c1.922,0,3.108-0.974,3.108-2.61c0-1.471-1.021-2.349-2.824-2.349c-0.735,0-1.233,0.07-1.494,0.142V35.471z"/>
	</g>
</g>
<g id="Layer_1">
</g>
</svg>
