<?xml version="1.0" encoding="iso-8859-1"?>
<!--
Copyright (C) 2022 Marlon Engel

This program is free software: you can redistribute it and/or modify it under
the terms of the GNU Lesser General Public License as published by the Free
Software Foundation, either version 3 of the License, or (at your option) any
later version.

This program is distributed in the hope that it will be useful, but WITHOUT ANY
WARRANTY; without even the implied warranty of MERCHANTABILITY or FITNESS FOR A
PARTICULAR PURPOSE. See the GNU Lesser General Public License for more details.

You should have received a copy of the GNU Lesser General Public License along
with this program.  If not, see <http://www.gnu.org/licenses/>.
-->
<!-- Generator: Adobe Illustrator 26.4.0, SVG Export Plug-In . SVG Version: 6.00 Build 0)  -->
<svg version="1.1" xmlns="http://www.w3.org/2000/svg" xmlns:xlink="http://www.w3.org/1999/xlink" x="0px" y="0px"
	 viewBox="0 0 74.055 74.055" style="enable-background:new 0 0 74.055 74.055;" xml:space="preserve">
<g id="hd3_x5F_disabled">
	<path style="fill:#474748;" d="M64.055,74.055H10c-5.5,0-10-4.5-10-10V10C0,4.5,4.5,0,10,0h54.055c5.5,0,10,4.5,10,10v54.055
		C74.055,69.555,69.555,74.055,64.055,74.055z"/>
	<path style="fill:#272828;" d="M58.785,68.785H15.27c-5.5,0-10-4.5-10-10V15.27c0-5.5,4.5-10,10-10h43.515c5.5,0,10,4.5,10,10
		v43.515C68.785,64.285,64.285,68.785,58.785,68.785z"/>
	<g>
		<path style="fill:#474748;" d="M27.142,45.378c1.28,0.664,4.221,1.897,7.161,1.897c3.746,0,5.643-1.803,5.643-4.126
			c0-3.035-3.035-4.411-6.212-4.411h-2.94V33.57h2.798c2.419-0.047,5.501-0.948,5.501-3.557c0-1.85-1.518-3.225-4.553-3.225
			c-2.513,0-5.169,1.091-6.449,1.85l-1.471-5.217c1.85-1.186,5.549-2.324,9.532-2.324c6.593,0,10.244,3.462,10.244,7.683
			c0,3.272-1.85,5.834-5.644,7.161v0.095c3.699,0.664,6.687,3.462,6.687,7.493c0,5.454-4.789,9.438-12.614,9.438
			c-3.984,0-7.351-1.043-9.153-2.182L27.142,45.378z"/>
	</g>
</g>
<g id="Layer_1">
</g>
</svg>
