<?xml version="1.0" encoding="iso-8859-1"?>
<!--
Copyright (C) 2022 Marlon Engel

This program is free software: you can redistribute it and/or modify it under
the terms of the GNU Lesser General Public License as published by the Free
Software Foundation, either version 3 of the License, or (at your option) any
later version.

This program is distributed in the hope that it will be useful, but WITHOUT ANY
WARRANTY; without even the implied warranty of MERCHANTABILITY or FITNESS FOR A
PARTICULAR PURPOSE. See the GNU Lesser General Public License for more details.

You should have received a copy of the GNU Lesser General Public License along
with this program.  If not, see <http://www.gnu.org/licenses/>.
-->
<!-- Generator: Adobe Illustrator 26.4.0, SVG Export Plug-In . SVG Version: 6.00 Build 0)  -->
<svg version="1.1" xmlns="http://www.w3.org/2000/svg" xmlns:xlink="http://www.w3.org/1999/xlink" x="0px" y="0px"
	 viewBox="0 0 74.055 74.055" style="enable-background:new 0 0 74.055 74.055;" xml:space="preserve">
<g id="hd5_x5F_disabled">
	<path style="fill:#474748;" d="M64.055,74.055H10c-5.5,0-10-4.5-10-10V10C0,4.5,4.5,0,10,0h54.055c5.5,0,10,4.5,10,10v54.055
		C74.055,69.555,69.555,74.055,64.055,74.055z"/>
	<path style="fill:#272828;" d="M58.785,68.785H15.27c-5.5,0-10-4.5-10-10V15.27c0-5.5,4.5-10,10-10h43.515c5.5,0,10,4.5,10,10
		v43.515C68.785,64.285,64.285,68.785,58.785,68.785z"/>
	<g>
		<path style="fill:#474748;" d="M46.443,27.547H34.492l-0.664,4.742c0.664-0.095,1.233-0.095,1.992-0.095
			c2.94,0,5.928,0.664,8.109,2.229c2.324,1.565,3.747,4.126,3.747,7.73c0,5.738-4.933,10.812-13.231,10.812
			c-3.747,0-6.877-0.854-8.584-1.755l1.28-5.406c1.375,0.664,4.174,1.518,6.972,1.518c2.987,0,6.165-1.423,6.165-4.694
			c0-3.178-2.514-5.122-8.679-5.122c-1.707,0-2.893,0.095-4.174,0.284l2.04-16.172h16.978V27.547z"/>
	</g>
</g>
<g id="Layer_1">
</g>
</svg>
