<?xml version="1.0" encoding="iso-8859-1"?>
<!--
Copyright (C) 2022 Marlon Engel

This program is free software: you can redistribute it and/or modify it under
the terms of the GNU Lesser General Public License as published by the Free
Software Foundation, either version 3 of the License, or (at your option) any
later version.

This program is distributed in the hope that it will be useful, but WITHOUT ANY
WARRANTY; without even the implied warranty of MERCHANTABILITY or FITNESS FOR A
PARTICULAR PURPOSE. See the GNU Lesser General Public License for more details.

You should have received a copy of the GNU Lesser General Public License along
with this program.  If not, see <http://www.gnu.org/licenses/>.
-->
<!-- Generator: Adobe Illustrator 26.4.0, SVG Export Plug-In . SVG Version: 6.00 Build 0)  -->
<svg version="1.1" xmlns="http://www.w3.org/2000/svg" xmlns:xlink="http://www.w3.org/1999/xlink" x="0px" y="0px"
	 viewBox="0 0 74.055 74.055" style="enable-background:new 0 0 74.055 74.055;" xml:space="preserve">
<g id="hd6_x5F_enabled">
	<path style="fill:#474748;" d="M64.055,74.055H10c-5.5,0-10-4.5-10-10V10C0,4.5,4.5,0,10,0h54.055c5.5,0,10,4.5,10,10v54.055
		C74.055,69.555,69.555,74.055,64.055,74.055z"/>
	<path style="fill:#272828;" d="M58.785,68.785H15.27c-5.5,0-10-4.5-10-10V15.27c0-5.5,4.5-10,10-10h43.515c5.5,0,10,4.5,10,10
		v43.515C68.785,64.285,64.285,68.785,58.785,68.785z"/>
	<g>
		<path style="fill:#E2BC23;" d="M45.542,26.741c-0.807-0.047-1.66,0-2.798,0.095c-6.402,0.521-9.248,3.794-10.055,7.398h0.143
			c1.518-1.565,3.651-2.466,6.545-2.466c5.169,0,9.532,3.651,9.532,10.054c0,6.118-4.695,11.145-11.382,11.145
			c-8.205,0-12.235-6.117-12.235-13.469c0-5.785,2.134-10.623,5.453-13.705c3.083-2.798,7.066-4.315,11.904-4.553
			c1.327-0.095,2.181-0.095,2.893-0.048V26.741z M41.606,42.202c0-2.846-1.518-5.312-4.6-5.312c-1.944,0-3.558,1.187-4.269,2.751
			c-0.189,0.38-0.284,0.948-0.284,1.802c0.142,3.272,1.707,6.213,4.979,6.213C39.993,47.655,41.606,45.332,41.606,42.202z"/>
	</g>
</g>
<g id="Layer_1">
</g>
</svg>
