<?xml version="1.0" encoding="iso-8859-1"?>
<!--
Copyright (C) 2022 Marlon Engel

This program is free software: you can redistribute it and/or modify it under
the terms of the GNU Lesser General Public License as published by the Free
Software Foundation, either version 3 of the License, or (at your option) any
later version.

This program is distributed in the hope that it will be useful, but WITHOUT ANY
WARRANTY; without even the implied warranty of MERCHANTABILITY or FITNESS FOR A
PARTICULAR PURPOSE. See the GNU Lesser General Public License for more details.

You should have received a copy of the GNU Lesser General Public License along
with this program.  If not, see <http://www.gnu.org/licenses/>.
-->
<!-- Generator: Adobe Illustrator 26.4.0, SVG Export Plug-In . SVG Version: 6.00 Build 0)  -->
<svg version="1.1" xmlns="http://www.w3.org/2000/svg" xmlns:xlink="http://www.w3.org/1999/xlink" x="0px" y="0px"
	 viewBox="0 0 74.055 74.055" style="enable-background:new 0 0 74.055 74.055;" xml:space="preserve">
<g id="loop_x5F_active">
	<path style="fill:#474748;" d="M64.055,74.055H10c-5.5,0-10-4.5-10-10V10C0,4.5,4.5,0,10,0h54.055c5.5,0,10,4.5,10,10v54.055
		C74.055,69.555,69.555,74.055,64.055,74.055z"/>
	<path style="fill:#E2BC23;" d="M58.785,68.785H15.27c-5.5,0-10-4.5-10-10V15.27c0-5.5,4.5-10,10-10h43.515c5.5,0,10,4.5,10,10
		v43.515C68.785,64.285,64.285,68.785,58.785,68.785z"/>
	<g>
		<path style="fill:#535454;" d="M38.574,18.507v-6.749l-10.606,9.016l0.001,0.001l10.605,9.015v-6.264
			c6.76,0.787,12.027,6.54,12.027,13.508c0,2.915-0.93,5.612-2.496,7.829l3.291,3.935c2.626-3.208,4.205-7.304,4.205-11.764
			C55.6,27.308,48.095,19.314,38.574,18.507z"/>
		<path style="fill:#535454;" d="M35.447,44.271v6.194c-6.696-0.847-11.895-6.565-11.895-13.486c0-2.915,0.93-5.612,2.497-7.829
			l-3.291-3.935c-2.626,3.209-4.206,7.305-4.206,11.764c0,9.681,7.437,17.637,16.895,18.507v0.077v6.741l10.607-9.016l-0.097-0.082
			L35.447,44.271z"/>
	</g>
</g>
<g id="Layer_1">
</g>
</svg>
